name C:\Users\antoi\Documents\MyRepositories\upper-imu-dc\Results\main_tracking\Case_100\kinematics.mot
datacolumns 43
datarows 8
range 0.70000000 0.84000000
endheader 
time	clav_prot	clav_elev	scapula_abduction	scapula_elevation	scapula_upward_rot	scapula_winging	plane_elv	shoulder_elv	axial_rot	TrapeziusScapula_M/activation	TrapeziusScapula_S/activation	TrapeziusScapula_I/activation	TrapeziusClavicle_S/activation	SerratusAnterior_I/activation	SerratusAnterior_M/activation	SerratusAnterior_S/activation	Rhomboideus_S/activation	Rhomboideus_I/activation	LevatorScapulae/activation	Coracobrachialis/activation	DeltoideusClavicle_A/activation	DeltoideusScapula_P/activation	DeltoideusScapula_M/activation	LatissimusDorsi_S/activation	LatissimusDorsi_M/activation	LatissimusDorsi_I/activation	PectoralisMajorClavicle_S/activation	PectoralisMajorThorax_I/activation	PectoralisMajorThorax_M/activation	TeresMajor/activation	Infraspinatus_I/activation	Infraspinatus_S/activation	PectoralisMinor/activation	TeresMinor/activation	Subscapularis_S/activation	Subscapularis_M/activation	Subscapularis_I/activation	Supraspinatus_P/activation	Supraspinatus_A/activation	TRIlong/activation	BIC_long/activation	BIC_brevis/activation	
          0.70000000	        -23.22961008	         -3.83743277	        -15.17600081	         -3.03486635	         10.47621764	          5.91675612	         -4.45577366	         14.64321950	         24.78950596	          0.01000000	          0.01000000	          0.01000000	          0.01487992	          0.01000006	          0.01165201	          0.01800128	          0.02424106	          0.05506231	          0.04973337	          0.01861631	          0.01000001	          0.03805693	          0.01000002	          0.01531766	          0.01704914	          0.01640596	          0.01594086	          0.02857760	          0.02942323	          0.04254144	          0.01000000	          0.01000000	          0.01965067	          0.01386705	          0.02047800	          0.02063468	          0.02403091	          0.01375873	          0.01205053	          0.05799427	          0.01000001	          0.01817770	
          0.72000000	        -23.10440540	         -4.15248016	        -15.07583700	         -3.17207422	         10.11891045	          6.09805947	         -1.96063168	         15.46890332	         22.55721979	          0.01051244	          0.01000058	          0.01000597	          0.01565011	          0.01000000	          0.01000000	          0.02040182	          0.02725634	          0.06032755	          0.05006120	          0.02280003	          0.01128017	          0.03676272	          0.01000002	          0.01949228	          0.02147872	          0.01917191	          0.01909935	          0.03415756	          0.03293238	          0.04369337	          0.01242429	          0.01060946	          0.02483168	          0.01676559	          0.02284932	          0.02264848	          0.02541081	          0.01644472	          0.01501663	          0.05838044	          0.01200654	          0.02294287	
          0.74000000	        -22.97963668	         -4.47115603	        -14.95044155	         -3.32370331	          9.80333247	          6.27076020	          0.53762815	         16.33212065	         20.32776528	          0.01110172	          0.01002209	          0.01000044	          0.01799054	          0.01000002	          0.01079025	          0.02261541	          0.02787516	          0.05639380	          0.04733534	          0.02443202	          0.01519954	          0.03282615	          0.01000003	          0.02137319	          0.02305615	          0.02124965	          0.02238016	          0.03583293	          0.03542095	          0.03980616	          0.01410508	          0.01312738	          0.02662814	          0.01856858	          0.02482055	          0.02456065	          0.02683493	          0.01919055	          0.01856153	          0.05027391	          0.01587270	          0.02472120	
          0.76000000	        -22.86116888	         -4.79154465	        -14.81799223	         -3.48643250	          9.52113674	          6.43691090	          3.04543353	         17.23239161	         18.10403586	          0.01244711	          0.01045836	          0.01000003	          0.01910685	          0.01000002	          0.01225323	          0.02406889	          0.02814438	          0.05252260	          0.04466807	          0.02607156	          0.01876096	          0.02816626	          0.01000006	          0.02268978	          0.02413421	          0.02260491	          0.02585829	          0.03858265	          0.03936748	          0.03592435	          0.01528874	          0.01472549	          0.02818916	          0.01987229	          0.02612702	          0.02554596	          0.02708769	          0.02103244	          0.02132306	          0.04318614	          0.01898181	          0.02674997	
          0.78000000	        -22.73976514	         -5.11402385	        -14.66395900	         -3.65945004	          9.27015633	          6.59719852	          5.56724971	         18.16939810	         15.89304138	          0.01357890	          0.01050388	          0.01000003	          0.01947495	          0.01000002	          0.01387970	          0.02538528	          0.02786294	          0.04939618	          0.04184341	          0.02850014	          0.02201603	          0.02326475	          0.01000004	          0.02355483	          0.02484285	          0.02346960	          0.02880174	          0.04128985	          0.04279613	          0.03242689	          0.01615326	          0.01542359	          0.02974647	          0.02071933	          0.02694486	          0.02613685	          0.02700464	          0.02236691	          0.02346643	          0.03639393	          0.02104887	          0.02990274	
          0.80000000	        -22.61062742	         -5.43797745	        -14.48295281	         -3.84076534	          9.04581983	          6.75257397	          8.10766127	         19.14359529	         13.70537284	          0.01413730	          0.01042035	          0.01061488	          0.01963071	          0.01000002	          0.01544826	          0.02640291	          0.02739617	          0.04649618	          0.03955045	          0.03119470	          0.02554215	          0.01859772	          0.01000004	          0.02397315	          0.02515495	          0.02404271	          0.03202706	          0.04413723	          0.04673814	          0.02914649	          0.01677524	          0.01559265	          0.03100550	          0.02128900	          0.02748347	          0.02642729	          0.02665829	          0.02341900	          0.02541221	          0.03041851	          0.02284394	          0.03354158	
          0.82000000	        -22.47031568	         -5.76252615	        -14.27191821	         -4.02824114	          8.84352034	          6.90380814	         10.66886232	         20.15538110	         11.54904766	          0.01420977	          0.01018211	          0.01146897	          0.01968805	          0.01000000	          0.01737871	          0.02731973	          0.02673321	          0.04347565	          0.03747109	          0.03333791	          0.02918930	          0.01479382	          0.01000004	          0.02407480	          0.02513894	          0.02442405	          0.03483601	          0.04640611	          0.05010206	          0.02560672	          0.01711597	          0.01575793	          0.03203497	          0.02153477	          0.02785569	          0.02669356	          0.02643502	          0.02435717	          0.02722690	          0.02453301	          0.02455553	          0.03658226	
          0.84000000	        -22.31805166	         -6.08559101	        -14.03139901	         -4.21957656	          8.66088308	          7.05070277	         13.24812723	         21.20651097	          9.42725557	          0.01395983	          0.01000000	          0.01225714	          0.01965457	          0.01034447	          0.01951791	          0.02816081	          0.02593133	          0.04025389	          0.03542878	          0.03492556	          0.03325051	          0.01200180	          0.01000003	          0.02396281	          0.02486306	          0.02467054	          0.03731585	          0.04807608	          0.05286829	          0.02166081	          0.01726449	          0.01610044	          0.03292693	          0.02148840	          0.02808311	          0.02695875	          0.02630301	          0.02530610	          0.02910867	          0.01864427	          0.02641148	          0.03905321	
